<svg width="48" height="48" viewBox="0 0 48 48" fill="none" xmlns="http://www.w3.org/2000/svg">
  <!-- Outer arcs -->
  <path d="M24 6 A18 18 0 0 1 40 18" stroke="#2188CA" stroke-width="2.5" fill="none" stroke-linecap="round"/>
  <path d="M40 30 A18 18 0 0 1 24 42" stroke="#2188CA" stroke-width="2.5" fill="none" stroke-linecap="round"/>
  <path d="M8 30 A18 18 0 0 1 8 18" stroke="#2188CA" stroke-width="2.5" fill="none" stroke-linecap="round"/>
  
  <!-- Connection nodes -->
  <circle cx="24" cy="6" r="3" fill="#2188CA"/>
  <circle cx="40" cy="24" r="3" fill="#2188CA"/>
  <circle cx="8" cy="24" r="3" fill="#2188CA"/>
  
  <!-- Inner circle -->
  <circle cx="24" cy="24" r="12" stroke="#2188CA" stroke-width="1.5" fill="none"/>
  
  <!-- Simplified pillar -->
  <path d="M19 16 L29 16 L29 18 L27 18 L27 30 L29 30 L29 32 L19 32 L19 30 L21 30 L21 18 L19 18 Z" fill="#2188CA"/>
  <!-- Pillar grooves -->
  <rect x="23" y="18" width="1" height="12" fill="white" opacity="0.4"/>
  <rect x="25" y="18" width="1" height="12" fill="white" opacity="0.4"/>
  <!-- Capital -->
  <path d="M18 15 Q24 12 30 15 L30 16 L18 16 Z" fill="#2188CA"/>
</svg>
